<svg width="53" height="48" viewBox="0 0 53 48" fill="none" xmlns="http://www.w3.org/2000/svg">
    <path
            d="M42.3153 46H10.7253C8.24319 46 6.2124 44.1143 6.2124 41.8095V6.19048C6.2124 3.88571 8.24319 2 10.7253 2H42.3153C44.7974 2 46.8282 3.88571 46.8282 6.19048V41.8095C46.8282 44.1143 44.7974 46 42.3153 46Z"
            fill="#FFC845"/>
    <path
            d="M14.5107 21.938L12.8907 22.928V21.332L14.5107 20.36H15.9867V29H14.5107V21.938ZM23.0844 24.362C23.3964 24.606 23.6364 24.912 23.8044 25.28C23.9764 25.644 24.0624 26.034 24.0624 26.45C24.0624 26.978 23.9344 27.45 23.6784 27.866C23.4264 28.278 23.0744 28.6 22.6224 28.832C22.1744 29.064 21.6664 29.18 21.0984 29.18C20.5344 29.18 20.0284 29.064 19.5804 28.832C19.1324 28.6 18.7824 28.278 18.5304 27.866C18.2784 27.45 18.1524 26.978 18.1524 26.45C18.1524 26.03 18.2364 25.64 18.4044 25.28C18.5724 24.916 18.8144 24.61 19.1304 24.362C18.6264 23.878 18.3744 23.298 18.3744 22.622C18.3744 22.134 18.4884 21.706 18.7164 21.338C18.9484 20.97 19.2704 20.686 19.6824 20.486C20.0984 20.282 20.5704 20.18 21.0984 20.18C21.6264 20.18 22.0964 20.282 22.5084 20.486C22.9244 20.686 23.2484 20.97 23.4804 21.338C23.7124 21.706 23.8284 22.134 23.8284 22.622C23.8284 23.302 23.5804 23.882 23.0844 24.362ZM21.0984 21.542C20.7344 21.542 20.4444 21.634 20.2284 21.818C20.0124 22.002 19.9044 22.27 19.9044 22.622C19.9044 22.978 20.0104 23.248 20.2224 23.432C20.4384 23.612 20.7304 23.702 21.0984 23.702C21.4664 23.702 21.7584 23.612 21.9744 23.432C22.1904 23.248 22.2984 22.978 22.2984 22.622C22.2984 22.27 22.1904 22.002 21.9744 21.818C21.7584 21.634 21.4664 21.542 21.0984 21.542ZM21.0984 27.818C21.5344 27.818 21.8824 27.7 22.1424 27.464C22.4024 27.224 22.5324 26.886 22.5324 26.45C22.5324 26.014 22.4024 25.676 22.1424 25.436C21.8824 25.196 21.5344 25.076 21.0984 25.076C20.6664 25.076 20.3224 25.196 20.0664 25.436C19.8104 25.676 19.6824 26.014 19.6824 26.45C19.6824 26.886 19.8104 27.224 20.0664 27.464C20.3224 27.7 20.6664 27.818 21.0984 27.818ZM25.8601 27.518H27.3421V29H25.8601V27.518ZM32.0786 23.456C32.6106 23.456 33.0866 23.578 33.5066 23.822C33.9306 24.066 34.2606 24.402 34.4966 24.83C34.7366 25.258 34.8566 25.74 34.8566 26.276C34.8566 26.804 34.7166 27.29 34.4366 27.734C34.1606 28.178 33.7906 28.53 33.3266 28.79C32.8626 29.05 32.3626 29.18 31.8266 29.18C31.3946 29.18 30.9866 29.09 30.6026 28.91C30.2186 28.73 29.8886 28.478 29.6126 28.154C29.3366 27.83 29.1406 27.458 29.0246 27.038L30.4166 26.666C30.4726 26.89 30.5746 27.088 30.7226 27.26C30.8706 27.432 31.0466 27.564 31.2506 27.656C31.4546 27.748 31.6646 27.794 31.8806 27.794C32.1566 27.794 32.4106 27.726 32.6426 27.59C32.8786 27.454 33.0646 27.27 33.2006 27.038C33.3366 26.802 33.4046 26.548 33.4046 26.276C33.4046 26 33.3346 25.748 33.1946 25.52C33.0586 25.288 32.8726 25.104 32.6366 24.968C32.4046 24.832 32.1526 24.764 31.8806 24.764C31.5766 24.764 31.3146 24.818 31.0946 24.926C30.8746 25.034 30.6946 25.168 30.5546 25.328L29.3186 24.932L29.5826 20.36H34.2746V21.716H30.8666L30.7346 23.84C30.9386 23.716 31.1566 23.622 31.3886 23.558C31.6246 23.49 31.8546 23.456 32.0786 23.456ZM36.4999 22.784C36.7319 22.8 36.9059 22.744 37.0219 22.616C37.1379 22.484 37.1959 22.302 37.1959 22.07C37.1959 22.03 37.1919 21.966 37.1839 21.878H36.4159V20.336H37.8979V21.938C37.8979 22.414 37.7979 22.782 37.5979 23.042C37.4019 23.302 37.1119 23.432 36.7279 23.432C36.6159 23.432 36.5119 23.424 36.4159 23.408L36.4999 22.784ZM38.5099 22.784C38.7419 22.8 38.9159 22.744 39.0319 22.616C39.1479 22.484 39.2059 22.302 39.2059 22.07C39.2059 22.03 39.2019 21.966 39.1939 21.878H38.4259V20.336H39.9079V21.938C39.9079 22.414 39.8079 22.782 39.6079 23.042C39.4119 23.302 39.1219 23.432 38.7379 23.432C38.6259 23.432 38.5219 23.424 38.4259 23.408L38.5099 22.784Z"
            fill="black"/>
    <path d="M42.5532 42L36.1401 35" stroke="#1C1C1F" stroke-width="2" stroke-linecap="round"
          stroke-linejoin="round"/>
    <path d="M10.4879 5.99997L16.9009 12.1428" stroke="#1C1C1F" stroke-width="2" stroke-linecap="round"
          stroke-linejoin="round"/>
    <path d="M38.2778 42H42.5532V38" stroke="#1C1C1F" stroke-width="2" stroke-linecap="round"
          stroke-linejoin="round"/>
    <path d="M14.7632 6L10.4878 6L10.4878 10" stroke="#1C1C1F" stroke-width="2" stroke-linecap="round"
          stroke-linejoin="round"/>
</svg>
