<svg xmlns="http://www.w3.org/2000/svg" viewBox="0 0 160 160" fill="#0072FF">
    <path d="M107.2 29.7l-3.4-1.9V38c0 2.6-2.1 4.7-4.7 4.7H60.8c-2.6 0-4.7-2.1-4.7-4.7V27.8l-3.4 1.9c-17 9.7-27.6 27.9-27.6 47.4-.1 29.9 24.2 54.7 54.1 55.1h.8c14.5 0 28.2-5.6 38.5-15.8 10.5-10.4 16.3-24.3 16.3-39.1.1-19.6-10.5-37.8-27.6-47.6zm-27.9 98c-27.5-.4-49.8-23.1-49.7-50.6.1-16.6 8.4-32.1 22-41.4V38c0 5.1 4.1 9.2 9.2 9.2h38.4c5.1 0 9.2-4.1 9.2-9.2v-2.3c13.7 9.3 22 24.9 22 41.6 0 13.6-5.3 26.3-15 35.9-9.7 9.6-22.5 14.7-36.1 14.5z"></path>
    <circle cx="57.6" cy="76.1" r="12.5"></circle>
    <path d="M109.3 67.1c-.5-.1-11.9-1.4-18.7 11.5-.2.4-.2 1 0 1.4.2.4.7.7 1.2.8.1 0 10.4 1.4 15.3 4.6.3.2.5.2.8.2.5 0 1-.2 1.3-.7.5-.7.3-1.7-.4-2.1-4-2.6-10.8-4.1-14.4-4.7 5.8-9 14.1-8.1 14.5-8 .8.1 1.6-.5 1.7-1.3.2-.8-.4-1.6-1.3-1.7zM80 84.3c1.4 0 2.5-1.1 2.5-2.5s-1.1-1.6-2.5-1.6-2.5.2-2.5 1.6c0 1.4 1.1 2.5 2.5 2.5zM38.4 89.5h4.9c.8 0 1.5-.7 1.5-1.5s-.7-1.5-1.5-1.5h-4.9c-.8 0-1.5.7-1.5 1.5s.7 1.5 1.5 1.5zM43 92l-4.9 1c-.8.2-1.4 1-1.2 1.8.2.7.8 1.2 1.5 1.2h.3l4.9-1c.8-.2 1.4-1 1.2-1.8-.2-.9-1-1.4-1.8-1.2zM116.7 89.5h4.9c.8 0 1.5-.7 1.5-1.5s-.7-1.5-1.5-1.5h-4.9c-.8 0-1.5.7-1.5 1.5s.6 1.5 1.5 1.5zM116.4 95l4.9 1h.3c.7 0 1.3-.5 1.5-1.2.2-.8-.4-1.6-1.2-1.8l-4.9-1c-.8-.2-1.6.4-1.8 1.2-.2.8.3 1.6 1.2 1.8zM85.7 90c-1.6 1-2.8.6-3.4.3-.8-.4-1.1-1.1-1.1-1.3v-2.1c0-.7-.5-1.2-1.2-1.2s-1.2.5-1.2 1.2V89c0 .2-.3.9-1.1 1.3-.6.3-1.8.7-3.4-.3-.6-.4-1.3-.2-1.7.4-.4.6-.2 1.3.4 1.7 1.1.7 2.2 1 3.3 1 .9 0 1.8-.2 2.6-.7.4-.2.8-.5 1.1-.9.3.3.7.6 1.1.9.8.5 1.7.7 2.6.7 1.1 0 2.2-.3 3.3-1 .6-.4.7-1.1.4-1.7-.4-.6-1.1-.7-1.7-.4zM72.7 57.7c-.1-.8-.9-1.4-1.7-1.3l-8.2 1.2c-.8.1-1.4.9-1.3 1.7.1.8.8 1.3 1.5 1.3h.2l8.2-1.2c.9-.1 1.4-.9 1.3-1.7zM96.9 60.7c.7 0 1.4-.5 1.5-1.3.1-.8-.4-1.6-1.3-1.7L89 56.4c-.8-.1-1.6.4-1.7 1.3-.1.8.4 1.6 1.3 1.7l8.2 1.2c0 .1.1.1.1.1z"></path>
</svg>
