<svg width="53" height="48" viewBox="0 0 53 48" fill="none" xmlns="http://www.w3.org/2000/svg">
    <path fill-rule="evenodd" clip-rule="evenodd"
          d="M11.584 38.5L45.805 21.5433C47.2058 20.7701 47.2058 18.8925 45.805 18.1194L11.584 1"
          fill="#FFC845"/>
    <path d="M11.584 2V46" stroke="black" stroke-width="2" stroke-linecap="round"
          stroke-linejoin="round"/>
    <path
            d="M25.0978 22.9007L22.8107 23.9229C22.3342 24.1784 21.7625 23.7525 21.8578 23.3266L22.3342 21.1118C22.3342 20.9415 22.3342 20.7711 22.1437 20.6007L20.3331 18.9823C19.9519 18.6415 20.1425 18.0453 20.7143 18.0453L23.2872 17.7045C23.4778 17.7045 23.6684 17.5342 23.7637 17.3638L24.9072 15.3194C25.0978 14.8935 25.8601 14.8935 26.0507 15.3194L27.1942 17.3638C27.2895 17.5342 27.4801 17.6194 27.6707 17.7045L30.2436 18.0453C30.8154 18.1305 31.006 18.7267 30.6248 18.9823L28.6236 20.6007C28.4331 20.7711 28.4331 20.9415 28.4331 21.1118L28.9095 23.3266C29.0048 23.7525 28.4331 24.1784 27.9566 23.9229L25.6695 22.9007C25.4789 22.8155 25.2884 22.8155 25.0978 22.9007Z"
            stroke="#1C1C1F" stroke-width="2" stroke-miterlimit="10"/>
</svg>
