<svg width="53" height="48" viewBox="0 0 53 48" fill="none" xmlns="http://www.w3.org/2000/svg">
    <mask id="path-1-inside-1" fill="white">
        <path d="M32.9473 44H47.1553C49.35 44 50.7362 41.8644 49.6966 40.1356L44.2675 32"/>
    </mask>
    <path
            d="M49.6966 40.1356L51.4105 39.1049L51.3863 39.0646L51.3602 39.0254L49.6966 40.1356ZM32.9473 46H47.1553V42H32.9473V46ZM47.1553 46C48.9212 46 50.4484 45.131 51.3122 43.8115C52.1856 42.4771 52.3603 40.6844 51.4105 39.1049L47.9826 41.1663C48.0415 41.2642 48.0505 41.3353 48.0484 41.3874C48.0459 41.4474 48.0254 41.5291 47.9654 41.6208C47.8473 41.8012 47.5841 42 47.1553 42V46ZM51.3602 39.0254L45.9311 30.8898L42.6039 33.1102L48.033 41.2458L51.3602 39.0254Z"
            fill="#1C1C1F" mask="url(#path-1-inside-1)"/>
    <rect x="3.01953" y="4" width="42.7534" height="40" rx="6" fill="#FFC845"/>
    <path
            d="M17.1732 18.04H19.3422V23.494H25.4802V18.04H27.6402V31H25.4802V25.528H19.3422V31H17.1732V18.04ZM30.3435 17.815H32.5125V19.804H30.3435V17.815ZM30.3435 21.28H32.5125V31H30.3435V21.28Z"
            fill="black"/>
</svg>
