<svg width="567" height="116" viewBox="0 0 567 116" fill="none" xmlns="http://www.w3.org/2000/svg">
    <path id="path"
          d="M210.35 33.8863L212.813 19.8155H197.251L200.724 0H179.073L175.606 19.8155H165.382L162.918 33.8863H173.143L168.978 57.6884C166.567 71.4475 175.747 82.6018 189.473 82.6018H201.827L204.443 67.649H196.125C192.125 67.649 189.45 64.3974 190.154 60.3931L194.794 33.8863H210.35V33.8863Z"
          fill="white"/>
    <path id="path"
          d="M264.064 33.8863L266.527 19.8155H250.965L254.432 0H232.781L229.314 19.8155H219.09L216.626 33.8863H226.851L222.686 57.6884C220.275 71.4475 229.455 82.6018 243.181 82.6018H255.535L258.151 67.649H249.833C245.833 67.649 243.158 64.3974 243.862 60.3931L248.502 33.8863H264.064V33.8863Z"
          fill="white"/>
    <path id="path"
          d="M564.536 33.8863L567 19.8155H551.438L554.91 0H533.26L529.793 19.8155H519.569L517.105 33.8863H527.329L523.164 57.6884C520.754 71.4475 529.934 82.6018 543.66 82.6018H556.013L558.629 67.649H550.312C546.311 67.649 543.636 64.3974 544.34 60.3931L548.98 33.8863H564.536V33.8863Z"
          fill="white"/>
    <path id="path"
          d="M51.6137 82.6086H78.6201L50.6341 33.2639L89.5541 0.0244141H61.5739L29.1827 27.6426L34.0161 0.0244141H14.4535L0 82.6086H19.5626L24.1908 56.1546L32.4734 48.787L51.6137 82.6086Z"
          fill="white"/>
    <path id="path"
          d="M154.114 51.2439C157.141 33.9509 145.385 19.8801 124.315 19.8801C103.503 19.8801 86.8383 33.9509 83.8115 51.2439C80.7847 68.5369 89.7243 82.6017 113.334 82.6017C127.272 82.6017 137.091 82.4136 149.486 66.8199L129.518 63.6506C127.477 67.108 123.805 70.0068 115.211 70.0068C107.351 70.0068 103.122 63.7035 104.19 57.6119H153.005L154.114 51.2439ZM122.016 33.8333C131.906 33.8333 133.431 41.3008 132.381 47.3102H105.99C107.322 39.7133 114.185 33.8333 122.016 33.8333Z"
          fill="white"/>
    <path id="path"
          d="M479.569 19.8801C460.1 19.8801 441.805 33.9509 438.778 51.2439C435.751 68.531 448.363 82.6017 468.588 82.6017C490.48 82.6017 506.347 68.531 509.374 51.2439C512.406 33.9509 499.038 19.8801 479.569 19.8801ZM470.958 69.1072C463.62 69.1072 458.141 64.0152 460.376 51.2439C462.623 38.4079 470.055 34.0685 477.088 34.0685C485.171 34.0685 489.917 38.943 487.764 51.2439C486.08 60.8459 480.414 69.1072 470.958 69.1072Z"
          fill="white"/>
    <path id="path"
          d="M326.459 19.8801L305.066 57.9941L296.549 19.8801H275.678L289.961 84.8126H290.008L272.504 116H293.586L299.352 105.681L347.323 19.8801H326.459Z"
          fill="white"/>
    <path id="path"
          d="M409.367 0H379.369H370.453H360.058L345.781 81.5669H356.175H365.091H395.148C409.777 81.5669 418.846 76.3573 424.506 66.6671C432.437 53.0902 423.521 39.9955 415.966 38.3139C422.559 36.6969 429.715 28.3062 430.759 22.3321C432.912 9.99594 424.612 0 409.367 0ZM403.689 13.8944C408.716 13.8944 412.071 17.9751 411.191 23.0142C410.311 28.0533 405.519 32.134 400.498 32.134H373.737L376.928 13.8944H403.689ZM406.475 54.7895C405.495 60.3814 400.181 64.9148 394.602 64.9148H368.007L371.549 44.6583H398.145C403.724 44.6583 407.454 49.1977 406.475 54.7895Z"
          fill="white"/>
</svg>
