<svg width="82.1" height="26" viewBox="0 0 82.1 26" style="enable-background:new 0 0 82.1 26;" xml:space="preserve">
<g>
	<g>
		<g>
			<path class="st0" d="M30.3,14.9h2.5c0.9,0,1.7-0.2,2.4-0.6c0.7-0.4,1.2-0.9,1.6-1.6c0.4-0.7,0.6-1.5,0.6-2.4
				c0-0.9-0.2-1.7-0.6-2.4c-0.4-0.7-0.9-1.2-1.6-1.6c-0.7-0.4-1.5-0.6-2.4-0.6h-5.2v14.2h2.7V14.9z M30.3,7.8h1.9
				c0.8,0,1.5,0.2,1.9,0.7c0.4,0.4,0.7,1.1,0.7,1.9c0,0.8-0.2,1.4-0.7,1.9c-0.4,0.4-1.1,0.7-1.9,0.7h-1.9V7.8z"></path>
            <path class="st0" d="M63.8,6.5c-1-0.6-2.1-0.9-3.3-0.9h-5.4v14.2h5.4c1.3,0,2.4-0.3,3.3-0.9c1-0.6,1.7-1.4,2.2-2.5
				c0.5-1.1,0.8-2.3,0.8-3.7c0-1.4-0.3-2.7-0.8-3.7C65.5,8,64.8,7.1,63.8,6.5z M63,16.3c-0.7,0.9-1.7,1.3-3,1.3h-2.2V7.9H60
				c1.3,0,2.3,0.4,3,1.3c0.7,0.9,1.1,2.1,1.1,3.5S63.8,15.4,63,16.3z"></path>
            <path class="st0" d="M45.5,20.1c3.2,0,5.8-2.6,5.8-5.8V5.7h-2.7v8.6v0.2c0,1.7-1.4,3.1-3.1,3.1s-3.1-1.4-3.1-3.1v-0.2V5.7h-2.7
				v8.6C39.7,17.5,42.3,20.1,45.5,20.1z"></path>
            <path class="st0" d="M75.3,20.1c3.2,0,5.8-2.6,5.8-5.8V5.7h-2.7v8.6v0.2c0,1.7-1.4,3.1-3.1,3.1c-1.7,0-3.1-1.4-3.1-3.1v-0.2V5.7
				h-2.7v8.6C69.5,17.5,72.1,20.1,75.3,20.1z"></path>
		</g>
	</g>
    <g>
		<path class="st0" d="M15.1,4v20.9c0,0.2,0.2,0.3,0.4,0.2l4.5-3.1c0.1,0,0.1-0.1,0.1-0.2V0.9c0-0.2-0.2-0.3-0.4-0.2l-4.5,3.1
			C15.1,3.9,15.1,4,15.1,4z"></path>
        <path class="st0" d="M12.5,3.8L8,0.7c-0.2-0.1-0.4,0-0.4,0.2v11.7c0,0.2,0.2,0.3,0.4,0.2l4.5-3.1c0.1,0,0.1-0.1,0.1-0.2V4
			C12.6,4,12.6,3.9,12.5,3.8z"></path>
        <path class="st0" d="M7.6,16.3v5.5c0,0.1,0,0.2,0.1,0.2l4.5,3.1c0.2,0.1,0.4,0,0.4-0.2V13.1c0-0.2-0.2-0.3-0.4-0.2l-4.5,3.1
			C7.6,16.1,7.6,16.2,7.6,16.3z"></path>
        <path class="st0" d="M0.1,4v20.9c0,0.2,0.2,0.3,0.4,0.2L5,21.9c0.1,0,0.1-0.1,0.1-0.2V0.9c0-0.2-0.2-0.3-0.4-0.2L0.2,3.8
			C0.2,3.9,0.1,4,0.1,4z"></path>
	</g>
</g>
</svg>
