<svg xmlns="http://www.w3.org/2000/svg" viewBox="0 0 160 160" fill="#0072FF">
    <path d="M92.6 26.7c.8.9 1.6 1.9 2.2 2.9.5.9 1 1.8 1.4 2.8 19.9 6.7 34.3 25.6 34.3 47.7 0 27.8-22.6 50.4-50.4 50.4s-50.4-22.6-50.4-50.4c0-22.1 14.3-41 34.2-47.7.4-1 .8-1.9 1.4-2.8.6-1 1.4-2 2.2-2.9-24.2 5.7-42.3 27.5-42.3 53.4 0 30.3 24.6 54.9 54.9 54.9S135 110.4 135 80.1c-.1-25.9-18.2-47.7-42.4-53.4z"></path>
    <path d="M80 52c7.4 0 13.5-6 13.5-13.5 0-2.8-.8-5.3-2.3-7.5-.7-1-1.5-2-2.5-2.8-1.7-1.4-3.6-2.4-5.8-2.9-1-.2-1.9-.3-2.9-.3s-2 .1-2.9.3c-2.2.5-4.2 1.5-5.8 2.9-1 .8-1.8 1.7-2.5 2.8-1.4 2.1-2.3 4.7-2.3 7.5C66.5 45.9 72.6 52 80 52zM120.9 78.8c1.3.7 2.8 0 3.1-1.4.2-1-.3-2-1.3-2.4l-8.7-3.7c-.7-.3-1.4-.1-1.9.4-.8.8-.5 2.1.4 2.7l8.4 4.4zM48 71.6c-.5-.5-1.3-.7-1.9-.4l-8.7 3.7c-.9.4-1.5 1.4-1.3 2.4.3 1.4 1.9 2.1 3.1 1.4l8.3-4.5c1-.5 1.2-1.8.5-2.6zM99.8 81.1c-.8.5-1.1 1.5-.5 2.3l10.1 13.9c.8 1.2 2.5 1.3 3.5.2.8-.9.9-2.2.1-3.1l-11.4-12.9c-.4-.6-1.2-.7-1.8-.4zM85.5 87.3l3.6 20.4c.2 1.4 1.6 2.2 3 1.9 1.3-.3 2-1.7 1.7-2.9l-5.5-20c-.2-.7-.9-1.1-1.6-1-.8.1-1.3.8-1.2 1.6zM67.7 109.6c.1 0 .1 0 .2.1 1.3.3 2.6-.5 2.9-1.8l3.7-20.6c.1-.7-.4-1.4-1.1-1.6h-.2c-.7-.1-1.3.3-1.5.9l-5.6 20.2c-.4 1.1.4 2.4 1.6 2.8zM47.2 97.7c0 .1 0 .1 0 0 .9.9 2.4.8 3.2-.3L60.9 83c.5-.6.3-1.5-.4-1.9-.1-.1-.3-.2-.4-.2-.5-.3-1.2-.2-1.5.3L46.8 94.5c-.7.8-.7 2.1.1 2.9l.3.3zM104.3 56.8H93.9c-.2 0-.4.2-.4.4s.1.4.4.4l10.4.6c.4 0 .7-.3.7-.6 0-.5-.3-.8-.7-.8zM68.3 63.5c-.2-.4-.7-.5-1.1-.3l-8.3 4.2c-.7.4-1 1.2-.6 1.9s1.3.9 1.9.4l7.7-5.1c.5-.2.6-.7.4-1.1zM92.5 78.4c.7-.4.9-1.3.5-2l-5.1-7.7c-.2-.4-.7-.5-1.1-.3-.4.2-.5.7-.3 1.1l4.2 8.3c.3.7 1.1 1 1.8.6zM80 70.3c-.5 0-.8.3-.9.8l-.5 9.3c0 .8.6 1.4 1.3 1.4.8 0 1.4-.7 1.3-1.4l-.5-9.3c.1-.5-.3-.8-.7-.8zM91.7 63.5c-.2.4-.1.9.3 1.1l7.7 5.1c.7.4 1.5.2 1.9-.4.4-.7.1-1.6-.6-1.9l-8.3-4.1c-.3-.3-.8-.2-1 .2zM67.5 78.4c.7.4 1.6.1 1.9-.6l4.2-8.3c.2-.4.1-.9-.3-1.1-.4-.2-.9-.1-1.1.3L67 76.5c-.4.6-.2 1.5.5 1.9zM55.7 58.1l10.4-.6c.2 0 .4-.2.4-.4s-.2-.4-.4-.4H55.7c-.4 0-.7.3-.7.7 0 .4.3.7.7.7z"></path>
</svg>
