<svg xmlns="http://www.w3.org/2000/svg" viewBox="0 0 160 160" fill="#0072FF">
    <path d="M80 23.9c-30.3 0-54.9 24.6-54.9 54.9 0 27.3 20 49.9 46.1 54.2l-2.5-2.8-1.3-1.4-1.7-1.7c-20.8-6.2-36-25.5-36-48.3C29.6 51 52.2 28.4 80 28.4s50.4 22.6 50.4 50.4c0 16-7.5 30.3-19.2 39.6l-.5 3.2-.5 3c14.9-9.8 24.7-26.7 24.7-45.8 0-30.3-24.6-54.9-54.9-54.9z"></path>
    <path d="M86.9 87c2.4-2 3.9-5.1 3.8-8.5-.1-5.9-5.1-10.7-11-10.5-5.9.1-10.6 5.1-10.5 11 .1 3.4 1.7 6.3 4.2 8.3l-.2-6.9c-.1-.5-.2-1-.2-1.5-.1-3.8 2.9-7 6.8-7.1h.2c3.7 0 6.8 3 6.9 6.8 0 .6 0 1.1-.2 1.6l.2 6.8z"></path>
    <path d="M96.4 78.4c-.2-9-7.7-16.1-16.6-16h-.4c-8.9.3-16 7.8-15.8 16.8.2 6.6 4.3 12.3 10 14.7l-.1-3.6c-3.9-2.2-6.6-6.4-6.7-11.2-.2-7.3 5.6-13.4 12.9-13.5h.3c7.1 0 13 5.7 13.2 12.9.1 4.8-2.4 9.1-6.2 11.5l.1 3.6c5.6-2.8 9.5-8.6 9.3-15.2z"></path>
    <path d="M102 78.2c-.3-12-10.2-21.6-22.2-21.5h-.6c-12 .4-21.5 10.5-21.2 22.6.2 9.8 6.9 18 15.8 20.6l-.1-2.7c-7.5-2.6-13-9.6-13.2-18-.3-10.8 8.3-19.7 19-20h.5c10.5 0 19.3 8.4 19.5 19 .2 8.1-4.6 15.2-11.5 18.3 1.2.2 2.3.6 3.4 1.1 6.5-3.9 10.8-11.2 10.6-19.4z"></path>
    <path d="M107.7 78.1c-.4-15.1-12.8-27.1-27.8-27h-.7c-15.2.4-27.3 13.1-26.9 28.3.3 12.9 9.5 23.6 21.6 26.3v-1.9c-11-2.7-19.4-12.5-19.7-24.4-.3-14.2 10.9-26.1 25.2-26.4h.6c13.9 0 25.5 11.2 25.8 25.2.2 8.8-4.1 16.7-10.8 21.5l1.7 1.1c6.9-5.2 11.2-13.5 11-22.7z"></path>
    <path d="M113.3 77.9C112.9 59.8 98 45.4 80 45.4h-.8c-18.4.5-32.9 15.8-32.5 34.2.4 16.1 12.1 29.2 27.4 32v-1.3C59.6 107.5 48.4 94.9 48 79.5 47.6 61.8 61.6 47 79.3 46.6h.8c17.3 0 31.7 13.9 32.1 31.3.2 10.1-4.2 19.3-11.5 25.4l1.1.7c7.3-6.3 11.8-15.7 11.5-26.1z"></path>
    <path d="M106.7 107.2c7.8-7.3 12.6-17.8 12.3-29.4-.5-21.2-17.9-38-39-38h-1c-21.5.5-38.6 18.4-38 39.9.3 13 7 24.4 17.1 31.3l.6-.3c-10-6.7-16.7-18-17.1-31-.5-21.2 16.3-38.8 37.5-39.3h1c20.8 0 37.9 16.6 38.4 37.5.3 11.4-4.5 21.8-12.2 29l.4.2c-.1 0 0 0 0 .1z"></path>
    <path d="M105.2 109.5l-.7-.4-.5-.3-4.6-2.9-1.1-.7-4.1-2.6-1.8-1.1-.4-.3c-1.3-.8-2.8-1.4-4.3-1.7-.9-.2-1.8-.3-2.8-.2h-.3v-1.4c0-.8 0-1.9-.1-3.2 0-1-.1-2.1-.1-3.3 0-.9 0-1.7-.1-2.6 0-1.5-.1-3-.1-4.4 0-1.7-.1-3.4-.1-4.8-.1-2.3-2-4.2-4.3-4.1h-.1c-2.3.1-4 1.9-4 4.2l.1 4.9.1 4.4.1 2.6.1 3.3.1 3.2.1 2.6.1 3.8v1.9l.1 4.5v1.2l.1 3.9-1.1 1.1-.5.5-1.4 1.4-5-2.7-3.2-1.8-2-1.1c-.4-.2-.9-.4-1.3-.4-.4-.1-.8-.1-1.2 0-1 .1-1.8.6-2.5 1.4-.7.8-.6 2.1.2 2.8L69 127.4l.9.9 2.7 2.7 1.5 1.5c.4.4.8.7 1.2 1.1 2.2 1.7 4.9 2.7 7.7 2.7h11.9c5.9 0 11-4.1 12.2-9.8.1-.3.1-.5.2-.8l.3-2.1.5-3 .5-3c.7-3.3-.7-6.4-3.4-8.1z"></path>
</svg>
